<svg xmlns="http://www.w3.org/2000/svg" width="284" height="75" fill="none" viewBox="0 0 284 75"><path fill="#000" d="M63.8017 23C63.8017 27.25 62.3017 30.925 59.3017 34.025C56.3017 37.075 51.9267 39.275 46.1767 40.625C49.2767 41.475 51.6267 42.875 53.2267 44.825C54.8267 46.725 55.6267 48.925 55.6267 51.425C55.6267 55.375 54.3767 58.8 51.8767 61.7C49.4267 64.6 45.8267 66.85 41.0767 68.45C36.3267 70 30.6017 70.775 23.9017 70.775C21.4017 70.775 19.4017 70.7 17.9017 70.55C17.8517 71.95 17.2517 73 16.1017 73.7C14.9517 74.4 13.4767 74.75 11.6767 74.75C9.87666 74.75 8.62666 74.35 7.92666 73.55C7.27666 72.75 7.00166 71.575 7.10166 70.025C7.55166 63.025 8.42666 55.7 9.72666 48.05C11.0267 40.35 12.6767 32.925 14.6767 25.775C15.0267 24.525 15.7267 23.65 16.7767 23.15C17.8267 22.65 19.2017 22.4 20.9017 22.4C23.9517 22.4 25.4767 23.25 25.4767 24.95C25.4767 25.65 25.3267 26.45 25.0267 27.35C23.7267 31.25 22.4267 36.55 21.1267 43.25C19.8267 49.9 18.9017 56.25 18.3517 62.3C20.7517 62.5 22.7017 62.6 24.2017 62.6C31.2017 62.6 36.3267 61.6 39.5767 59.6C42.8767 57.55 44.5267 54.95 44.5267 51.8C44.5267 49.6 43.5767 47.75 41.6767 46.25C39.8267 44.75 36.7017 43.925 32.3017 43.775C31.3017 43.725 30.6017 43.475 30.2017 43.025C29.8017 42.575 29.6017 41.85 29.6017 40.85C29.6017 39.4 29.9017 38.225 30.5017 37.325C31.1017 36.425 32.2017 35.95 33.8017 35.9C37.3517 35.8 40.5517 35.275 43.4017 34.325C46.3017 33.375 48.5767 32.05 50.2267 30.35C51.8767 28.6 52.7017 26.575 52.7017 24.275C52.7017 21.375 51.2767 19.1 48.4267 17.45C45.5767 15.75 41.2017 14.9 35.3017 14.9C29.9517 14.9 24.7767 15.6 19.7767 17C14.7767 18.35 10.5267 20.075 7.02666 22.175C5.42666 23.125 4.07666 23.6 2.97666 23.6C2.07666 23.6 1.37666 23.3 0.87666 22.7C0.42666 22.05 0.20166 21.25 0.20166 20.3C0.20166 19.05 0.45166 17.975 0.95166 17.075C1.50166 16.175 2.77666 15.15 4.77666 14C8.97666 11.6 13.9017 9.725 19.5517 8.375C25.2017 7.025 30.9767 6.35 36.8767 6.35C45.9267 6.35 52.6767 7.875 57.1267 10.925C61.5767 13.975 63.8017 18 63.8017 23ZM68.1979 71.375C66.2979 71.375 64.9479 70.375 64.1479 68.375C63.3979 66.375 63.0229 63.175 63.0229 58.775C63.0229 52.275 63.9479 46.1 65.7979 40.25C66.2479 38.8 66.9729 37.75 67.9729 37.1C69.0229 36.4 70.4729 36.05 72.3229 36.05C73.3229 36.05 74.0229 36.175 74.4229 36.425C74.8229 36.675 75.0229 37.15 75.0229 37.85C75.0229 38.65 74.6479 40.45 73.8979 43.25C73.3979 45.25 72.9979 47 72.6979 48.5C72.3979 50 72.1479 51.85 71.948 54.05C73.5979 49.75 75.4479 46.25 77.498 43.55C79.548 40.85 81.548 38.925 83.498 37.775C85.4979 36.625 87.323 36.05 88.973 36.05C92.223 36.05 93.848 37.675 93.848 40.925C93.848 41.575 93.623 43.15 93.173 45.65C92.773 47.65 92.573 48.9 92.573 49.4C92.573 51.15 93.198 52.025 94.448 52.025C95.8479 52.025 97.6479 50.925 99.8479 48.725C100.498 48.075 101.173 47.75 101.873 47.75C102.523 47.75 103.023 48.05 103.373 48.65C103.773 49.2 103.973 49.95 103.973 50.9C103.973 52.75 103.473 54.2 102.473 55.25C101.073 56.7 99.423 57.95 97.523 59C95.673 60 93.698 60.5 91.598 60.5C88.948 60.5 86.923 59.825 85.523 58.475C84.173 57.125 83.498 55.3 83.498 53C83.498 52.25 83.573 51.5 83.7229 50.75C83.8229 49.75 83.8729 49.075 83.8729 48.725C83.8729 47.925 83.5979 47.525 83.0479 47.525C82.298 47.525 81.298 48.375 80.0479 50.075C78.848 51.725 77.648 53.925 76.448 56.675C75.248 59.425 74.273 62.325 73.523 65.375C72.9729 67.725 72.3229 69.325 71.5729 70.175C70.8729 70.975 69.7479 71.375 68.1979 71.375ZM104.654 71.375C102.404 71.375 100.554 70.35 99.1038 68.3C97.7038 66.2 97.0038 63.6 97.0038 60.5C97.0038 56.75 97.2538 53.325 97.7538 50.225C98.2538 47.075 99.0788 43.75 100.229 40.25C100.729 38.75 101.429 37.675 102.329 37.025C103.229 36.375 104.654 36.05 106.604 36.05C107.704 36.05 108.454 36.225 108.854 36.575C109.304 36.925 109.529 37.45 109.529 38.15C109.529 38.55 109.254 39.9 108.704 42.2C108.204 44.05 107.804 45.725 107.504 47.225C106.504 52.475 106.004 55.975 106.004 57.725C106.004 58.775 106.129 59.525 106.379 59.975C106.629 60.375 107.029 60.575 107.579 60.575C108.329 60.575 109.254 59.825 110.354 58.325C111.504 56.825 112.704 54.55 113.954 51.5C115.254 48.45 116.504 44.7 117.704 40.25C118.104 38.75 118.704 37.675 119.504 37.025C120.354 36.375 121.604 36.05 123.254 36.05C124.404 36.05 125.204 36.2 125.654 36.5C126.104 36.75 126.329 37.25 126.329 38C126.329 39.25 125.704 42.675 124.454 48.275C123.054 54.675 122.354 58.625 122.354 60.125C122.354 61.075 122.554 61.825 122.954 62.375C123.354 62.875 123.879 63.125 124.529 63.125C125.529 63.125 126.704 62.525 128.054 61.325C129.454 60.075 131.304 58.075 133.604 55.325C134.204 54.625 134.879 54.275 135.629 54.275C136.279 54.275 136.779 54.575 137.129 55.175C137.529 55.775 137.729 56.6 137.729 57.65C137.729 59.65 137.254 61.2 136.304 62.3C134.154 64.95 131.829 67.125 129.329 68.825C126.879 70.525 124.079 71.375 120.929 71.375C118.529 71.375 116.754 70.45 115.604 68.6C114.504 66.75 113.954 64.15 113.954 60.8C113.104 64.2 111.829 66.825 110.129 68.675C108.429 70.475 106.604 71.375 104.654 71.375ZM136.972 71.375C135.072 71.375 133.722 70.375 132.922 68.375C132.172 66.375 131.797 63.175 131.797 58.775C131.797 52.275 132.722 46.1 134.572 40.25C135.022 38.8 135.747 37.75 136.747 37.1C137.797 36.4 139.247 36.05 141.097 36.05C142.097 36.05 142.797 36.175 143.197 36.425C143.597 36.675 143.797 37.15 143.797 37.85C143.797 38.65 143.422 40.45 142.672 43.25C142.172 45.25 141.772 47 141.472 48.5C141.172 50 140.922 51.85 140.722 54.05C142.372 49.75 144.222 46.25 146.272 43.55C148.322 40.85 150.322 38.925 152.272 37.775C154.272 36.625 156.097 36.05 157.747 36.05C160.997 36.05 162.622 37.675 162.622 40.925C162.622 42.875 162.072 46.4 160.972 51.5C160.022 55.85 159.547 58.725 159.547 60.125C159.547 62.125 160.272 63.125 161.722 63.125C162.722 63.125 163.897 62.525 165.247 61.325C166.647 60.075 168.497 58.075 170.797 55.325C171.397 54.625 172.072 54.275 172.822 54.275C173.472 54.275 173.972 54.575 174.322 55.175C174.722 55.775 174.922 56.6 174.922 57.65C174.922 59.65 174.447 61.2 173.497 62.3C171.347 64.95 169.022 67.125 166.522 68.825C164.072 70.525 161.272 71.375 158.122 71.375C155.572 71.375 153.647 70.65 152.347 69.2C151.047 67.7 150.397 65.55 150.397 62.75C150.397 61.35 150.747 58.85 151.447 55.25C152.097 52.1 152.422 49.925 152.422 48.725C152.422 47.925 152.147 47.525 151.597 47.525C150.947 47.525 150.022 48.375 148.822 50.075C147.672 51.725 146.472 53.925 145.222 56.675C144.022 59.425 143.047 62.325 142.297 65.375C141.747 67.725 141.097 69.325 140.347 70.175C139.647 70.975 138.522 71.375 136.972 71.375ZM183.179 71.375C178.279 71.375 174.454 70 171.704 67.25C169.004 64.45 167.654 60.775 167.654 56.225C167.654 52.175 168.454 48.625 170.054 45.575C171.654 42.525 173.729 40.175 176.279 38.525C178.829 36.875 181.504 36.05 184.304 36.05C187.054 36.05 189.179 36.875 190.679 38.525C192.229 40.125 193.004 42.2 193.004 44.75C193.004 46.85 192.529 48.625 191.579 50.075C190.679 51.525 189.479 52.25 187.979 52.25C187.029 52.25 186.254 52.025 185.654 51.575C185.104 51.125 184.829 50.5 184.829 49.7C184.829 49.35 184.879 48.95 184.979 48.5C185.079 48.05 185.154 47.725 185.204 47.525C185.454 46.775 185.579 46.075 185.579 45.425C185.579 44.775 185.404 44.275 185.054 43.925C184.754 43.575 184.304 43.4 183.704 43.4C182.554 43.4 181.479 43.925 180.479 44.975C179.479 45.975 178.679 47.35 178.079 49.1C177.479 50.85 177.179 52.775 177.179 54.875C177.179 60.675 179.704 63.575 184.754 63.575C186.804 63.575 189.004 62.9 191.354 61.55C193.754 60.15 196.104 58.075 198.404 55.325C199.004 54.625 199.679 54.275 200.429 54.275C201.079 54.275 201.579 54.575 201.929 55.175C202.329 55.775 202.529 56.6 202.529 57.65C202.529 59.55 202.054 61.1 201.104 62.3C198.754 65.2 195.929 67.45 192.629 69.05C189.379 70.6 186.229 71.375 183.179 71.375ZM238.092 54.275C238.742 54.275 239.242 54.575 239.592 55.175C239.992 55.775 240.192 56.6 240.192 57.65C240.192 59.65 239.717 61.2 238.767 62.3C236.467 64.95 234.092 67.125 231.642 68.825C229.242 70.525 226.492 71.375 223.392 71.375C220.842 71.375 218.917 70.65 217.617 69.2C216.317 67.7 215.667 65.55 215.667 62.75C215.667 61.35 216.017 58.85 216.717 55.25C217.367 52.1 217.692 49.925 217.692 48.725C217.692 47.925 217.417 47.525 216.867 47.525C216.217 47.525 215.292 48.375 214.092 50.075C212.892 51.725 211.692 53.925 210.492 56.675C209.292 59.425 208.317 62.325 207.567 65.375C206.617 69.375 204.267 71.375 200.517 71.375C199.017 71.375 198.017 70.85 197.517 69.8C197.067 68.7 196.842 66.75 196.842 63.95C196.842 62.35 196.867 61.075 196.917 60.125L196.992 54.125C196.992 46.425 197.767 38.4 199.317 30.05C200.917 21.7 203.242 14.7 206.292 9.05C209.392 3.35 213.092 0.499996 217.392 0.499996C219.692 0.499996 221.542 1.5 222.942 3.5C224.392 5.45 225.117 8 225.117 11.15C225.117 16.2 223.642 21.45 220.692 26.9C217.742 32.3 212.942 38.625 206.292 45.875C206.142 48.475 206.067 51.15 206.067 53.9C207.717 49.65 209.542 46.2 211.542 43.55C213.592 40.85 215.592 38.925 217.542 37.775C219.542 36.625 221.367 36.05 223.017 36.05C226.267 36.05 227.892 37.675 227.892 40.925C227.892 42.875 227.342 46.4 226.242 51.5C225.292 55.85 224.817 58.725 224.817 60.125C224.817 62.125 225.542 63.125 226.992 63.125C227.992 63.125 229.167 62.525 230.517 61.325C231.917 60.075 233.767 58.075 236.067 55.325C236.667 54.625 237.342 54.275 238.092 54.275ZM215.817 7.925C214.917 7.925 213.917 9.225 212.817 11.825C211.717 14.375 210.642 17.85 209.592 22.25C208.592 26.6 207.767 31.35 207.117 36.5C210.217 32.85 212.767 28.875 214.767 24.575C216.817 20.275 217.842 16.375 217.842 12.875C217.842 11.275 217.667 10.05 217.317 9.2C216.967 8.35 216.467 7.925 215.817 7.925ZM243.938 31.1C241.838 31.1 240.263 30.625 239.213 29.675C238.163 28.675 237.638 27.3 237.638 25.55C237.638 23.8 238.313 22.35 239.663 21.2C241.063 20 242.788 19.4 244.838 19.4C246.688 19.4 248.188 19.85 249.338 20.75C250.488 21.65 251.063 22.925 251.063 24.575C251.063 26.575 250.413 28.175 249.113 29.375C247.813 30.525 246.088 31.1 243.938 31.1ZM243.338 71.375C240.088 71.375 237.713 70.225 236.213 67.925C234.763 65.625 234.038 62.575 234.038 58.775C234.038 56.525 234.313 53.65 234.863 50.15C235.463 46.6 236.213 43.3 237.113 40.25C237.563 38.65 238.163 37.55 238.913 36.95C239.663 36.35 240.863 36.05 242.513 36.05C245.063 36.05 246.338 36.9 246.338 38.6C246.338 39.85 245.863 42.75 244.913 47.3C243.713 52.8 243.113 56.525 243.113 58.475C243.113 59.975 243.313 61.125 243.713 61.925C244.113 62.725 244.788 63.125 245.738 63.125C246.638 63.125 247.763 62.5 249.113 61.25C250.463 60 252.263 58.025 254.513 55.325C255.113 54.625 255.788 54.275 256.538 54.275C257.188 54.275 257.688 54.575 258.038 55.175C258.438 55.775 258.638 56.6 258.638 57.65C258.638 59.65 258.163 61.2 257.213 62.3C252.263 68.35 247.638 71.375 243.338 71.375ZM257.895 71.375C255.995 71.375 254.645 70.375 253.845 68.375C253.095 66.375 252.72 63.175 252.72 58.775C252.72 52.275 253.645 46.1 255.495 40.25C255.945 38.8 256.67 37.75 257.67 37.1C258.72 36.4 260.17 36.05 262.02 36.05C263.02 36.05 263.72 36.175 264.12 36.425C264.52 36.675 264.72 37.15 264.72 37.85C264.72 38.65 264.345 40.45 263.595 43.25C263.095 45.25 262.695 47 262.395 48.5C262.095 50 261.845 51.85 261.645 54.05C263.295 49.75 265.145 46.25 267.195 43.55C269.245 40.85 271.245 38.925 273.195 37.775C275.195 36.625 277.02 36.05 278.67 36.05C280.27 36.05 281.47 36.475 282.27 37.325C283.12 38.125 283.545 39.325 283.545 40.925C283.545 42.225 283.27 44.675 282.72 48.275C282.22 51.325 281.82 54.225 281.52 56.975C281.22 59.675 281.07 62.7 281.07 66.05C281.07 67.95 280.67 69.325 279.87 70.175C279.12 70.975 277.87 71.375 276.12 71.375C274.47 71.375 273.27 70.95 272.52 70.1C271.77 69.25 271.395 67.975 271.395 66.275C271.395 64.275 271.745 60.975 272.445 56.375C273.045 52.375 273.345 49.825 273.345 48.725C273.345 47.925 273.07 47.525 272.52 47.525C271.87 47.525 270.945 48.375 269.745 50.075C268.595 51.725 267.395 53.925 266.145 56.675C264.945 59.425 263.97 62.325 263.22 65.375C262.67 67.725 262.02 69.325 261.27 70.175C260.57 70.975 259.445 71.375 257.895 71.375Z"/><path fill="#000" d="M59.3017 34.025L60.1572 34.8665L60.164 34.8595L59.3017 34.025ZM46.1767 40.625L45.9024 39.4568L45.8593 41.7823L46.1767 40.625ZM53.2267 44.825L52.299 45.5862L52.3038 45.5921L52.3088 45.598L53.2267 44.825ZM51.8767 61.7L50.9677 60.9164L50.96 60.9256L51.8767 61.7ZM41.0767 68.45L41.4489 69.5909L41.4597 69.5872L41.0767 68.45ZM17.9017 70.55L18.0211 69.356L16.7481 69.2287L16.7024 70.5072L17.9017 70.55ZM16.1017 73.7L15.4777 72.675L15.4777 72.675L16.1017 73.7ZM7.92666 73.55L6.99532 74.3067L7.00914 74.3237L7.02357 74.3402L7.92666 73.55ZM7.10166 70.025L8.29917 70.1023L8.29919 70.102L7.10166 70.025ZM9.72666 48.05L10.9097 48.251L10.9099 48.2498L9.72666 48.05ZM14.6767 25.775L13.5211 25.4514L13.521 25.4517L14.6767 25.775ZM16.7767 23.15L16.2607 22.0666L16.2607 22.0666L16.7767 23.15ZM25.0267 27.35L23.8882 26.9705L23.8882 26.9705L25.0267 27.35ZM21.1267 43.25L22.3044 43.4802L22.3047 43.4786L21.1267 43.25ZM18.3517 62.3L17.1566 62.1914L17.0471 63.3954L18.252 63.4959L18.3517 62.3ZM39.5767 59.6L40.2056 60.622L40.2099 60.6193L39.5767 59.6ZM41.6767 46.25L40.9209 47.1821L40.927 47.187L40.9331 47.1919L41.6767 46.25ZM32.3017 43.775L32.2417 44.9735L32.2513 44.974L32.2608 44.9743L32.3017 43.775ZM30.2017 43.025L29.3048 43.8222L29.3048 43.8222L30.2017 43.025ZM30.5017 37.325L29.5032 36.6594L29.5032 36.6594L30.5017 37.325ZM33.8017 35.9L33.7679 34.7005L33.7642 34.7006L33.8017 35.9ZM43.4017 34.325L43.0281 33.1846L43.0222 33.1866L43.4017 34.325ZM50.2267 30.35L51.0878 31.1858L51.0938 31.1795L51.0998 31.1732L50.2267 30.35ZM48.4267 17.45L47.8119 18.4806L47.8186 18.4846L47.8254 18.4885L48.4267 17.45ZM19.7767 17L20.0895 18.1586L20.1002 18.1556L19.7767 17ZM7.02666 22.175L7.63931 23.2068L7.64406 23.204L7.02666 22.175ZM0.87666 22.7L-0.109969 23.383L-0.079488 23.4271L-0.0452061 23.4682L0.87666 22.7ZM0.95166 17.075L-0.0722781 16.4493L-0.0852487 16.4705L-0.0973286 16.4922L0.95166 17.075ZM4.77666 14L4.18129 12.9581L4.17849 12.9597L4.77666 14ZM19.5517 8.375L19.8305 9.54214L19.8305 9.54214L19.5517 8.375ZM57.1267 10.925L57.8051 9.93517L57.8051 9.93517L57.1267 10.925ZM62.6017 23C62.6017 26.9334 61.2264 30.3105 58.4393 33.1905L60.164 34.8595C63.3769 31.5395 65.0017 27.5666 65.0017 23H62.6017ZM58.4462 33.1835C55.6548 36.0214 51.5125 38.1396 45.9024 39.4568L46.4509 41.7932C52.3408 40.4104 56.9486 38.1286 60.1572 34.8665L58.4462 33.1835ZM45.8593 41.7823C48.7856 42.5847 50.8949 43.875 52.299 45.5862L54.1544 44.0638C52.3584 41.875 49.7677 40.3653 46.494 39.4677L45.8593 41.7823ZM52.3088 45.598C53.7253 47.2801 54.4267 49.2058 54.4267 51.425H56.8267C56.8267 48.6442 55.928 46.1699 54.1446 44.052L52.3088 45.598ZM54.4267 51.425C54.4267 55.0973 53.2736 58.2417 50.9678 60.9165L52.7856 62.4835C55.4798 59.3583 56.8267 55.6527 56.8267 51.425H54.4267ZM50.96 60.9256C48.6898 63.6127 45.3007 65.7609 40.6936 67.3128L41.4597 69.5872C46.3526 67.9391 50.1635 65.5873 52.7933 62.4744L50.96 60.9256ZM40.7044 67.3092C36.1077 68.8092 30.5155 69.575 23.9017 69.575V71.975C30.6878 71.975 36.5457 71.1908 41.4489 69.5908L40.7044 67.3092ZM23.9017 69.575C21.4193 69.575 19.4641 69.5003 18.0211 69.356L17.7823 71.744C19.3392 71.8997 21.384 71.975 23.9017 71.975V69.575ZM16.7024 70.5072C16.6661 71.5235 16.2665 72.1948 15.4777 72.675L16.7256 74.725C18.2368 73.8052 19.0372 72.3765 19.1009 70.5928L16.7024 70.5072ZM15.4777 72.675C14.5689 73.2281 13.3286 73.55 11.6767 73.55V75.95C13.6248 75.95 15.3344 75.5719 16.7256 74.725L15.4777 72.675ZM11.6767 73.55C9.9927 73.55 9.18487 73.1656 8.82975 72.7598L7.02357 74.3402C8.06845 75.5344 9.76062 75.95 11.6767 75.95V73.55ZM8.858 72.7933C8.4755 72.3225 8.20901 71.4997 8.29917 70.1023L5.90415 69.9477C5.79431 71.6503 6.07782 73.1775 6.99532 74.3067L8.858 72.7933ZM8.29919 70.102C8.74625 63.1477 9.61596 55.8642 10.9097 48.251L8.54362 47.849C7.23736 55.5358 6.35707 62.9023 5.90413 69.948L8.29919 70.102ZM10.9099 48.2498C12.2032 40.5893 13.8442 33.2056 15.8323 26.0983L13.521 25.4517C11.5091 32.6444 9.85007 40.1107 8.54341 47.8502L10.9099 48.2498ZM15.8322 26.0986C16.1009 25.139 16.594 24.5661 17.2926 24.2334L16.2607 22.0666C14.8593 22.7339 13.9524 23.911 13.5211 25.4514L15.8322 26.0986ZM17.2926 24.2334C18.1246 23.8372 19.3042 23.6 20.9017 23.6V21.2C19.0991 21.2 17.5287 21.4628 16.2607 22.0666L17.2926 24.2334ZM20.9017 23.6C22.3545 23.6 23.2528 23.8093 23.7487 24.0857C23.9785 24.2138 24.0959 24.3416 24.1608 24.4503C24.2248 24.5573 24.2767 24.71 24.2767 24.95H26.6767C26.6767 24.34 26.5379 23.749 26.2206 23.2185C25.9043 22.6896 25.4498 22.2862 24.9171 21.9893C23.8881 21.4157 22.4988 21.2 20.9017 21.2V23.6ZM24.2767 24.95C24.2767 25.4843 24.1609 26.1524 23.8882 26.9705L26.1651 27.7295C26.4924 26.7476 26.6767 25.8157 26.6767 24.95H24.2767ZM23.8882 26.9705C22.5646 30.9415 21.253 36.2989 19.9486 43.0214L22.3047 43.4786C23.6003 36.8011 24.8887 31.5585 26.1651 27.7295L23.8882 26.9705ZM19.949 43.0198C18.642 49.7055 17.7107 56.0962 17.1566 62.1914L19.5467 62.4086C20.0926 56.4038 21.0113 50.0945 22.3044 43.4802L19.949 43.0198ZM18.252 63.4959C20.6679 63.6972 22.6547 63.8 24.2017 63.8V61.4C22.7486 61.4 20.8354 61.3028 18.4513 61.1041L18.252 63.4959ZM24.2017 63.8C31.2654 63.8 36.6661 62.8001 40.2056 60.622L38.9477 58.578C35.9872 60.3999 31.1379 61.4 24.2017 61.4V63.8ZM40.2099 60.6193C43.7674 58.4093 45.7267 55.4655 45.7267 51.8H43.3267C43.3267 54.4345 41.9859 56.6907 38.9434 58.5807L40.2099 60.6193ZM45.7267 51.8C45.7267 49.1926 44.5754 47.0096 42.4202 45.3081L40.9331 47.1919C42.5779 48.4904 43.3267 50.0074 43.3267 51.8H45.7267ZM42.4324 45.3179C40.2686 43.5634 36.811 42.728 32.3425 42.5757L32.2608 44.9743C36.5923 45.122 39.3847 45.9366 40.9209 47.1821L42.4324 45.3179ZM32.3616 42.5765C31.4808 42.5325 31.1798 42.3192 31.0986 42.2278L29.3048 43.8222C30.0235 44.6308 31.1225 44.9175 32.2417 44.9735L32.3616 42.5765ZM31.0986 42.2278C30.9875 42.1028 30.8017 41.737 30.8017 40.85H28.4017C28.4017 41.963 28.6158 43.0472 29.3048 43.8222L31.0986 42.2278ZM30.8017 40.85C30.8017 39.558 31.0694 38.6368 31.5001 37.9906L29.5032 36.6594C28.7339 37.8132 28.4017 39.242 28.4017 40.85H30.8017ZM31.5001 37.9906C31.7954 37.5477 32.4312 37.1434 33.8391 37.0994L33.7642 34.7006C31.9721 34.7566 30.4079 35.3023 29.5032 36.6594L31.5001 37.9906ZM33.8355 37.0995C37.4823 36.9968 40.8014 36.4567 43.7811 35.4634L43.0222 33.1866C40.3019 34.0933 37.2211 34.6032 33.7679 34.7005L33.8355 37.0995ZM43.7752 35.4654C46.8083 34.4718 49.2689 33.0597 51.0878 31.1858L49.3656 29.5142C47.8844 31.0403 45.795 32.2782 43.0281 33.1846L43.7752 35.4654ZM51.0998 31.1732C52.9491 29.2118 53.9017 26.8962 53.9017 24.275H51.5017C51.5017 26.2538 50.8042 27.9882 49.3536 29.5268L51.0998 31.1732ZM53.9017 24.275C53.9017 20.8814 52.1882 18.2411 49.0279 16.4115L47.8254 18.4885C50.3652 19.9589 51.5017 21.8686 51.5017 24.275H53.9017ZM49.0414 16.4194C45.9112 14.5523 41.2725 13.7 35.3017 13.7V16.1C41.1308 16.1 45.2422 16.9477 47.8119 18.4806L49.0414 16.4194ZM35.3017 13.7C29.8456 13.7 24.5616 14.4141 19.4531 15.8444L20.1002 18.1556C24.9917 16.7859 30.0577 16.1 35.3017 16.1V13.7ZM19.4639 15.8415C14.3841 17.213 10.0258 18.9761 6.40927 21.146L7.64406 23.204C11.0275 21.1739 15.1692 19.487 20.0895 18.1585L19.4639 15.8415ZM6.41401 21.1432C4.88615 22.0503 3.75928 22.4 2.97666 22.4V24.8C4.39404 24.8 5.96717 24.1997 7.63931 23.2068L6.41401 21.1432ZM2.97666 22.4C2.37219 22.4 2.03439 22.2148 1.79853 21.9318L-0.0452061 23.4682C0.718935 24.3852 1.78113 24.8 2.97666 24.8V22.4ZM1.86329 22.0169C1.57827 21.6052 1.40166 21.0561 1.40166 20.3H-0.99834C-0.99834 21.4439 -0.724946 22.4948 -0.109969 23.383L1.86329 22.0169ZM1.40166 20.3C1.40166 19.2105 1.61882 18.3451 2.00065 17.6578L-0.0973286 16.4922C-0.715502 17.6049 -0.99834 18.8895 -0.99834 20.3H1.40166ZM1.9756 17.7007C2.35423 17.0812 3.38837 16.1825 5.37483 15.0403L4.17849 12.9597C2.16495 14.1175 0.64909 15.2688 -0.0722781 16.4493L1.9756 17.7007ZM5.37203 15.0419C9.45551 12.7085 14.27 10.8708 19.8305 9.54214L19.2728 7.20785C13.5334 8.57922 8.49782 10.4915 4.18129 12.9581L5.37203 15.0419ZM19.8305 9.54214C25.3878 8.21431 31.0691 7.55 36.8767 7.55V5.15C30.8842 5.15 25.0156 5.83568 19.2728 7.20785L19.8305 9.54214ZM36.8767 7.55C45.8319 7.55 52.2923 9.06639 56.4482 11.9148L57.8051 9.93517C53.061 6.68361 46.0214 5.15 36.8767 5.15V7.55ZM56.4482 11.9148C60.6022 14.7619 62.6017 18.4313 62.6017 23H65.0017C65.0017 17.5687 62.5511 13.1881 57.8051 9.93517L56.4482 11.9148ZM64.1479 68.375L63.0244 68.7963L63.0289 68.8086L63.0338 68.8207L64.1479 68.375ZM65.7979 40.25L66.9421 40.6118L66.944 40.6057L65.7979 40.25ZM67.9729 37.1L68.627 38.1062L68.6386 38.0985L67.9729 37.1ZM73.8979 43.25L72.7388 42.9395L72.7362 42.9492L72.7338 42.959L73.8979 43.25ZM71.948 54.05L70.7529 53.9414L73.0683 54.4799L71.948 54.05ZM77.498 43.55L76.5422 42.8243L76.5422 42.8243L77.498 43.55ZM83.498 37.775L82.8997 36.7346L82.8884 36.7414L83.498 37.775ZM93.173 45.65L94.3496 45.8853L94.3519 45.874L94.354 45.8626L93.173 45.65ZM99.8479 48.725L98.9994 47.8765L98.9994 47.8765L99.8479 48.725ZM103.373 48.65L102.336 49.2546L102.367 49.3069L102.402 49.3558L103.373 48.65ZM102.473 55.25L103.336 56.0835L103.342 56.0776L102.473 55.25ZM97.523 59L98.0936 60.0557L98.1034 60.0503L97.523 59ZM85.523 58.475L84.6744 59.3235L84.6821 59.3312L84.69 59.3388L85.523 58.475ZM83.7229 50.75L84.8996 50.9853L84.9112 50.9278L84.917 50.8694L83.7229 50.75ZM80.0479 50.075L79.0812 49.3641L79.0775 49.3692L80.0479 50.075ZM76.448 56.675L75.3481 56.1951L75.3481 56.1951L76.448 56.675ZM73.523 65.375L72.3576 65.0884L72.3545 65.1015L73.523 65.375ZM71.5729 70.175L70.6731 69.381L70.6699 69.3848L71.5729 70.175ZM68.1979 70.175C67.4699 70.175 66.9164 69.9879 66.4747 69.6607C66.0225 69.3257 65.6025 68.7802 65.2621 67.9293L63.0338 68.8207C63.4934 69.9698 64.1484 70.9243 65.0462 71.5893C65.9545 72.2621 67.026 72.575 68.1979 72.575V70.175ZM65.2715 67.9537C64.6017 66.1673 64.2229 63.1507 64.2229 58.775H61.8229C61.8229 63.1993 62.1942 66.5827 63.0244 68.7963L65.2715 67.9537ZM64.2229 58.775C64.2229 52.3904 65.1313 46.338 66.9421 40.6118L64.6538 39.8882C62.7646 45.862 61.8229 52.1596 61.8229 58.775H64.2229ZM66.944 40.6057C67.3341 39.3486 67.92 38.5656 68.6269 38.1061L67.319 36.0939C66.0259 36.9344 65.1618 38.2514 64.6519 39.8943L66.944 40.6057ZM68.6386 38.0985C69.4195 37.5778 70.6054 37.25 72.3229 37.25V34.85C70.3405 34.85 68.6264 35.2222 67.3073 36.1015L68.6386 38.0985ZM72.3229 37.25C73.299 37.25 73.6963 37.386 73.787 37.4426L75.0589 35.4074C74.3496 34.964 73.3469 34.85 72.3229 34.85V37.25ZM73.787 37.4426C73.7782 37.4371 73.7682 37.4285 73.761 37.4198C73.7544 37.4118 73.7582 37.4136 73.767 37.4344C73.787 37.4819 73.8229 37.6061 73.8229 37.85H76.2229C76.2229 36.9517 75.9602 35.9707 75.0589 35.4074L73.787 37.4426ZM73.8229 37.85C73.8229 38.1154 73.7536 38.6594 73.5669 39.5553C73.3858 40.4244 73.1109 41.5504 72.7388 42.9395L75.0571 43.5605C75.435 42.1496 75.7226 40.9756 75.9165 40.0447C76.1048 39.1406 76.2229 38.3846 76.2229 37.85H73.8229ZM72.7338 42.959C72.2306 44.9715 71.826 46.7409 71.5213 48.2647L73.8746 48.7353C74.1699 47.2591 74.5653 45.5285 75.0621 43.541L72.7338 42.959ZM71.5213 48.2647C71.2101 49.8204 70.9552 51.7157 70.7529 53.9414L73.143 54.1586C73.3407 51.9843 73.5858 50.1796 73.8746 48.7353L71.5213 48.2647ZM73.0683 54.4799C74.6912 50.2506 76.4918 46.8596 78.4537 44.2756L76.5422 42.8243C74.4041 45.6404 72.5047 49.2494 70.8276 53.6201L73.0683 54.4799ZM78.4537 44.2756C80.4519 41.6439 82.3414 39.8502 84.1075 38.8086L82.8884 36.7414C80.7545 37.9998 78.644 40.0561 76.5422 42.8243L78.4537 44.2756ZM84.0961 38.8153C85.983 37.7303 87.6001 37.25 88.973 37.25V34.85C87.0458 34.85 85.0129 35.5197 82.8998 36.7347L84.0961 38.8153ZM88.973 37.25C90.413 37.25 91.2726 37.6092 91.7807 38.1173C92.2888 38.6254 92.648 39.485 92.648 40.925H95.048C95.048 39.115 94.5946 37.5371 93.4777 36.4202C92.3608 35.3033 90.7829 34.85 88.973 34.85V37.25ZM92.648 40.925C92.648 41.444 92.4488 42.8993 91.9919 45.4374L94.354 45.8626C94.7971 43.4007 95.048 41.706 95.048 40.925H92.648ZM91.9963 45.4147C91.7948 46.4219 91.6415 47.2513 91.538 47.8979C91.4386 48.5192 91.373 49.0432 91.373 49.4H93.773C93.773 49.2568 93.8073 48.9058 93.9079 48.2771C94.0044 47.6737 94.1511 46.8781 94.3496 45.8853L91.9963 45.4147ZM91.373 49.4C91.373 50.3816 91.5417 51.3333 92.0652 52.0662C92.6419 52.8735 93.5075 53.225 94.448 53.225V50.825C94.1384 50.825 94.0665 50.739 94.0182 50.6713C93.9167 50.5292 93.773 50.1684 93.773 49.4H91.373ZM94.448 53.225C95.4536 53.225 96.474 52.8349 97.4737 52.2239C98.483 51.6071 99.5579 50.7121 100.696 49.5735L98.9994 47.8765C97.938 48.9379 97.0129 49.6929 96.2222 50.1761C95.4219 50.6651 94.8423 50.825 94.448 50.825V53.225ZM100.696 49.5735C101.195 49.0754 101.582 48.95 101.873 48.95V46.55C100.764 46.55 99.8013 47.0746 98.9994 47.8765L100.696 49.5735ZM101.873 48.95C102.062 48.95 102.183 48.9924 102.336 49.2546L104.409 48.0454C103.862 47.1076 102.984 46.55 101.873 46.55V48.95ZM102.402 49.3558C102.604 49.6336 102.773 50.1057 102.773 50.9H105.173C105.173 49.7943 104.941 48.7664 104.343 47.9442L102.402 49.3558ZM102.773 50.9C102.773 52.5304 102.337 53.6523 101.604 54.4224L103.342 56.0776C104.608 54.7477 105.173 52.9696 105.173 50.9H102.773ZM101.61 54.4165C100.299 55.7742 98.746 56.953 96.9425 57.9497L98.1034 60.0503C100.1 58.947 101.847 57.6258 103.336 56.0835L101.61 54.4165ZM96.9523 57.9444C95.2773 58.8497 93.4984 59.3 91.598 59.3V61.7C93.8975 61.7 96.0686 61.1502 98.0936 60.0556L96.9523 57.9444ZM91.598 59.3C89.1438 59.3 87.4614 58.6772 86.3559 57.6112L84.69 59.3388C86.3845 60.9728 88.7521 61.7 91.598 61.7V59.3ZM86.3715 57.6265C85.2914 56.5464 84.698 55.0514 84.698 53H82.298C82.298 55.5486 83.0545 57.7036 84.6744 59.3235L86.3715 57.6265ZM84.698 53C84.698 52.3306 84.7648 51.6594 84.8996 50.9853L82.5463 50.5147C82.3811 51.3406 82.298 52.1694 82.298 53H84.698ZM84.917 50.8694C85.0162 49.8774 85.0729 49.1442 85.0729 48.725H82.6729C82.6729 49.0058 82.6297 49.6226 82.5289 50.6306L84.917 50.8694ZM85.0729 48.725C85.0729 48.2247 84.9937 47.6371 84.6555 47.1452C84.2616 46.5722 83.657 46.325 83.0479 46.325V48.725C83.0399 48.725 82.9748 48.7231 82.8854 48.6798C82.7902 48.6337 82.7197 48.5658 82.6778 48.5048C82.6413 48.4517 82.6424 48.4276 82.6517 48.468C82.661 48.5085 82.6729 48.5899 82.6729 48.725H85.0729ZM83.0479 46.325C82.2413 46.325 81.5281 46.7638 80.9583 47.2482C80.3579 47.7585 79.7323 48.4786 79.0812 49.3641L81.0147 50.7859C81.6136 49.9714 82.113 49.4165 82.5126 49.0768C82.9428 48.7111 83.1046 48.725 83.0479 48.725V46.325ZM79.0775 49.3692C77.8085 51.114 76.5683 53.3989 75.3481 56.1951L77.5478 57.1549C78.7276 54.4511 79.8874 52.336 81.0184 50.7808L79.0775 49.3692ZM75.3481 56.1951C74.1196 59.0104 73.1232 61.9753 72.3577 65.0885L74.6882 65.6615C75.4227 62.6747 76.3763 59.8396 77.5478 57.1549L75.3481 56.1951ZM72.3545 65.1015C71.8096 67.43 71.211 68.7714 70.6731 69.3811L72.4728 70.9689C73.4349 69.8786 74.1363 68.02 74.6914 65.6485L72.3545 65.1015ZM70.6699 69.3848C70.2862 69.8233 69.5637 70.175 68.1979 70.175V72.575C69.9322 72.575 71.4597 72.1267 72.476 70.9652L70.6699 69.3848ZM99.1038 68.3L98.1053 68.9656L98.1145 68.9794L98.1241 68.993L99.1038 68.3ZM97.7538 50.225L98.9385 50.4161L98.939 50.4131L97.7538 50.225ZM100.229 40.25L99.0904 39.8705L99.0888 39.8754L100.229 40.25ZM102.329 37.025L103.031 37.9978L103.031 37.9978L102.329 37.025ZM108.854 36.575L108.064 37.4781L108.09 37.5009L108.117 37.5222L108.854 36.575ZM108.704 42.2L109.862 42.5131L109.867 42.4962L109.871 42.4791L108.704 42.2ZM107.504 47.225L106.327 46.9897L106.325 47.0005L107.504 47.225ZM106.379 59.975L105.33 60.5578L105.345 60.5848L105.361 60.611L106.379 59.975ZM110.354 58.325L109.401 57.5949L109.394 57.605L109.386 57.6154L110.354 58.325ZM113.954 51.5L112.85 51.0295L112.847 51.0372L112.843 51.0449L113.954 51.5ZM117.704 40.25L118.862 40.5624L118.863 40.5592L117.704 40.25ZM119.504 37.025L118.775 36.0718L118.761 36.0825L118.747 36.0937L119.504 37.025ZM125.654 36.5L124.988 37.4985L125.029 37.5254L125.071 37.549L125.654 36.5ZM124.454 48.275L123.283 48.0136L123.282 48.0186L124.454 48.275ZM122.954 62.375L121.983 63.0808L122 63.1031L122.017 63.1246L122.954 62.375ZM128.054 61.325L128.851 62.2219L128.853 62.2201L128.054 61.325ZM133.604 55.325L132.693 54.544L132.688 54.5496L132.683 54.5551L133.604 55.325ZM137.129 55.175L136.092 55.7796L136.11 55.8107L136.13 55.8406L137.129 55.175ZM136.304 62.3L135.396 61.5157L135.384 61.5296L135.372 61.544L136.304 62.3ZM129.329 68.825L128.654 67.8326L128.645 67.8391L129.329 68.825ZM115.604 68.6L114.572 69.2133L114.578 69.2235L114.585 69.2335L115.604 68.6ZM113.954 60.8H115.154L112.79 60.509L113.954 60.8ZM110.129 68.675L111.001 69.4989L111.007 69.493L111.012 69.487L110.129 68.675ZM104.654 70.175C102.843 70.175 101.339 69.3819 100.084 67.607L98.1241 68.993C99.7687 71.3181 101.965 72.575 104.654 72.575V70.175ZM100.102 67.6344C98.861 65.7724 98.2038 63.4176 98.2038 60.5H95.8038C95.8038 63.7824 96.5467 66.6276 98.1053 68.9656L100.102 67.6344ZM98.2038 60.5C98.2038 56.8021 98.4504 53.4422 98.9385 50.4161L96.5691 50.0339C96.0572 53.2078 95.8038 56.6979 95.8038 60.5H98.2038ZM98.939 50.4131C99.4275 47.3352 100.236 44.0728 101.369 40.6246L99.0888 39.8754C97.9218 43.4271 97.0801 46.8148 96.5686 50.0369L98.939 50.4131ZM101.367 40.6295C101.82 39.2704 102.405 38.45 103.031 37.9978L101.626 36.0522C100.452 36.9 99.6374 38.2296 99.0904 39.8705L101.367 40.6295ZM103.031 37.9978C103.623 37.5706 104.737 37.25 106.604 37.25V34.85C104.571 34.85 102.835 35.1794 101.626 36.0522L103.031 37.9978ZM106.604 37.25C107.098 37.25 107.462 37.29 107.719 37.3499C107.845 37.3793 107.932 37.4106 107.99 37.4369C108.047 37.4631 108.066 37.4801 108.064 37.4781L109.644 35.6719C108.887 35.0097 107.734 34.85 106.604 34.85V37.25ZM108.117 37.5222C108.208 37.593 108.329 37.7268 108.329 38.15H110.729C110.729 37.1732 110.399 36.257 109.591 35.6278L108.117 37.5222ZM108.329 38.15C108.329 38.1492 108.325 38.2291 108.292 38.4418C108.261 38.6359 108.214 38.8946 108.147 39.223C108.013 39.8787 107.81 40.7762 107.537 41.9209L109.871 42.4791C110.147 41.3238 110.357 40.3963 110.498 39.702C110.629 39.0594 110.729 38.495 110.729 38.15H108.329ZM107.545 41.8869C107.04 43.7565 106.633 45.458 106.327 46.9897L108.681 47.4603C108.974 45.992 109.368 44.3435 109.862 42.5131L107.545 41.8869ZM106.325 47.0005C105.329 52.23 104.804 55.8423 104.804 57.725H107.204C107.204 56.1077 107.679 52.72 108.683 47.4495L106.325 47.0005ZM104.804 57.725C104.804 58.8081 104.922 59.8237 105.33 60.5578L107.428 59.3922C107.336 59.2263 107.204 58.7419 107.204 57.725H104.804ZM105.361 60.611C105.87 61.4252 106.696 61.775 107.579 61.775V59.375C107.514 59.375 107.469 59.369 107.442 59.3632C107.415 59.3576 107.404 59.3521 107.403 59.3517C107.403 59.3516 107.406 59.3533 107.408 59.3557C107.411 59.3579 107.406 59.3544 107.396 59.339L105.361 60.611ZM107.579 61.775C108.35 61.775 109.032 61.3974 109.591 60.9446C110.165 60.4792 110.741 59.8267 111.321 59.0346L109.386 57.6154C108.867 58.3233 108.43 58.7958 108.079 59.0804C107.713 59.3776 107.558 59.375 107.579 59.375V61.775ZM111.306 59.0551C112.551 57.4308 113.799 55.0421 115.064 51.9551L112.843 51.0449C111.609 54.0579 110.456 56.2192 109.401 57.5949L111.306 59.0551ZM115.058 51.9705C116.386 48.8537 117.653 45.0472 118.862 40.5624L116.545 39.9376C115.355 44.3528 114.121 48.0463 112.85 51.0295L115.058 51.9705ZM118.863 40.5592C119.229 39.1868 119.734 38.3842 120.261 37.9563L118.747 36.0937C117.674 36.9657 116.978 38.3132 116.544 39.9408L118.863 40.5592ZM120.233 37.9782C120.787 37.5543 121.733 37.25 123.254 37.25V34.85C121.475 34.85 119.92 35.1957 118.775 36.0718L120.233 37.9782ZM123.254 37.25C124.381 37.25 124.859 37.4124 124.988 37.4985L126.319 35.5015C125.549 34.9876 124.427 34.85 123.254 34.85V37.25ZM125.071 37.549C125.071 37.5492 125.069 37.5481 125.066 37.5454C125.063 37.5427 125.06 37.5398 125.057 37.5371C125.052 37.5309 125.056 37.5334 125.066 37.5549C125.088 37.6042 125.129 37.736 125.129 38H127.529C127.529 37.0349 127.228 36.0016 126.237 35.451L125.071 37.549ZM125.129 38C125.129 38.5004 124.994 39.5661 124.68 41.2908C124.371 42.9813 123.906 45.2205 123.283 48.0136L125.625 48.5364C126.252 45.7295 126.724 43.4562 127.041 41.7217C127.351 40.0214 127.529 38.7496 127.529 38H125.129ZM123.282 48.0186C122.58 51.2258 122.051 53.8307 121.697 55.8281C121.349 57.7945 121.154 59.2551 121.154 60.125H123.554C123.554 59.4949 123.709 58.2305 124.06 56.2469C124.406 54.2943 124.928 51.7242 125.626 48.5314L123.282 48.0186ZM121.154 60.125C121.154 61.2307 121.385 62.2586 121.983 63.0808L123.924 61.6692C123.722 61.3914 123.554 60.9193 123.554 60.125H121.154ZM122.017 63.1246C122.648 63.9143 123.521 64.325 124.529 64.325V61.925C124.237 61.925 124.059 61.8357 123.891 61.6254L122.017 63.1246ZM124.529 64.325C125.982 64.325 127.44 63.476 128.851 62.2219L127.257 60.4281C125.967 61.574 125.076 61.925 124.529 61.925V64.325ZM128.853 62.2201C130.319 60.9108 132.214 58.8571 134.524 56.0949L132.683 54.5551C130.394 57.2929 128.588 59.2392 127.255 60.4299L128.853 62.2201ZM134.515 56.106C134.944 55.6055 135.308 55.475 135.629 55.475V53.075C134.45 53.075 133.464 53.6445 132.693 54.544L134.515 56.106ZM135.629 55.475C135.817 55.475 135.939 55.5174 136.092 55.7796L138.165 54.5704C137.618 53.6326 136.74 53.075 135.629 53.075V55.475ZM136.13 55.8406C136.352 56.1727 136.529 56.7344 136.529 57.65H138.929C138.929 56.4656 138.706 55.3773 138.127 54.5094L136.13 55.8406ZM136.529 57.65C136.529 59.4703 136.097 60.7036 135.396 61.5157L137.212 63.0843C138.411 61.6964 138.929 59.8297 138.929 57.65H136.529ZM135.372 61.544C133.286 64.1146 131.046 66.2063 128.654 67.8327L130.004 69.8173C132.612 68.0437 135.021 65.7854 137.236 63.056L135.372 61.544ZM128.645 67.8391C126.407 69.3916 123.849 70.175 120.929 70.175V72.575C124.309 72.575 127.35 71.6584 130.013 69.8109L128.645 67.8391ZM120.929 70.175C118.893 70.175 117.529 69.4234 116.623 67.9665L114.585 69.2335C115.979 71.4766 118.164 72.575 120.929 72.575V70.175ZM116.635 67.9867C115.691 66.3982 115.154 64.044 115.154 60.8H112.754C112.754 64.256 113.317 67.1018 114.572 69.2133L116.635 67.9867ZM112.79 60.509C111.97 63.7873 110.767 66.2073 109.245 67.863L111.012 69.487C112.891 67.4427 114.238 64.6127 115.118 61.091L112.79 60.509ZM109.256 67.8511C107.718 69.4797 106.19 70.175 104.654 70.175V72.575C107.018 72.575 109.139 71.4703 111.001 69.4989L109.256 67.8511ZM132.922 68.375L131.799 68.7963L131.803 68.8086L131.808 68.8207L132.922 68.375ZM134.572 40.25L135.717 40.6118L135.718 40.6057L134.572 40.25ZM136.747 37.1L137.401 38.1062L137.413 38.0985L136.747 37.1ZM142.672 43.25L141.513 42.9395L141.511 42.9492L141.508 42.959L142.672 43.25ZM140.722 54.05L139.527 53.9414L141.843 54.4799L140.722 54.05ZM146.272 43.55L145.317 42.8243L145.317 42.8243L146.272 43.55ZM152.272 37.775L151.674 36.7346L151.663 36.7414L152.272 37.775ZM160.972 51.5L162.145 51.756L162.145 51.753L160.972 51.5ZM165.247 61.325L166.045 62.2219L166.047 62.2201L165.247 61.325ZM170.797 55.325L169.886 54.5441L169.882 54.5496L169.877 54.5551L170.797 55.325ZM174.322 55.175L173.286 55.7796L173.304 55.8107L173.324 55.8406L174.322 55.175ZM173.497 62.3L172.589 61.5157L172.577 61.5296L172.565 61.544L173.497 62.3ZM166.522 68.825L165.848 67.8326L165.838 67.8391L166.522 68.825ZM152.347 69.2L151.441 69.9859L151.447 69.9935L151.454 70.0011L152.347 69.2ZM151.447 55.25L150.272 55.0075L150.269 55.021L151.447 55.25ZM148.822 50.075L147.842 49.383L147.838 49.3888L148.822 50.075ZM145.222 56.675L144.13 56.1784L144.126 56.1867L144.123 56.1951L145.222 56.675ZM142.297 65.375L141.132 65.0884L141.129 65.1015L142.297 65.375ZM140.347 70.175L139.448 69.381L139.444 69.3848L140.347 70.175ZM136.972 70.175C136.244 70.175 135.691 69.9879 135.249 69.6607C134.797 69.3257 134.377 68.7802 134.037 67.9293L131.808 68.8207C132.268 69.9698 132.923 70.9243 133.821 71.5893C134.729 72.2621 135.8 72.575 136.972 72.575V70.175ZM134.046 67.9537C133.376 66.1673 132.997 63.1507 132.997 58.775H130.597C130.597 63.1993 130.969 66.5827 131.799 68.7963L134.046 67.9537ZM132.997 58.775C132.997 52.3904 133.906 46.338 135.717 40.6118L133.428 39.8882C131.539 45.862 130.597 52.1596 130.597 58.775H132.997ZM135.718 40.6057C136.109 39.3486 136.694 38.5656 137.401 38.1061L136.093 36.0939C134.8 36.9344 133.936 38.2514 133.426 39.8943L135.718 40.6057ZM137.413 38.0985C138.194 37.5778 139.38 37.25 141.097 37.25V34.85C139.115 34.85 137.401 35.2222 136.082 36.1015L137.413 38.0985ZM141.097 37.25C142.073 37.25 142.471 37.386 142.561 37.4426L143.833 35.4074C143.124 34.964 142.121 34.85 141.097 34.85V37.25ZM142.561 37.4426C142.553 37.4371 142.543 37.4285 142.535 37.4198C142.529 37.4118 142.533 37.4136 142.541 37.4344C142.561 37.4819 142.597 37.6061 142.597 37.85H144.997C144.997 36.9517 144.735 35.9707 143.833 35.4074L142.561 37.4426ZM142.597 37.85C142.597 38.1154 142.528 38.6594 142.341 39.5553C142.16 40.4244 141.885 41.5504 141.513 42.9395L143.832 43.5605C144.209 42.1496 144.497 40.9756 144.691 40.0447C144.879 39.1406 144.997 38.3846 144.997 37.85H142.597ZM141.508 42.959C141.005 44.9715 140.6 46.7409 140.296 48.2647L142.649 48.7353C142.944 47.2591 143.34 45.5285 143.837 43.541L141.508 42.959ZM140.296 48.2647C139.985 49.8204 139.73 51.7157 139.527 53.9414L141.917 54.1586C142.115 51.9843 142.36 50.1796 142.649 48.7353L140.296 48.2647ZM141.843 54.4799C143.466 50.2506 145.266 46.8596 147.228 44.2756L145.317 42.8243C143.179 45.6404 141.279 49.2494 139.602 53.6201L141.843 54.4799ZM147.228 44.2756C149.226 41.6439 151.116 39.8502 152.882 38.8086L151.663 36.7414C149.529 37.9998 147.418 40.0561 145.317 42.8243L147.228 44.2756ZM152.871 38.8153C154.757 37.7303 156.375 37.25 157.747 37.25V34.85C155.82 34.85 153.787 35.5197 151.674 36.7347L152.871 38.8153ZM157.747 37.25C159.187 37.25 160.047 37.6092 160.555 38.1173C161.063 38.6254 161.422 39.485 161.422 40.925H163.822C163.822 39.115 163.369 37.5371 162.252 36.4202C161.135 35.3033 159.557 34.85 157.747 34.85V37.25ZM161.422 40.925C161.422 42.7296 160.902 46.1364 159.799 51.247L162.145 51.753C163.243 46.6636 163.822 43.0204 163.822 40.925H161.422ZM159.8 51.244C158.856 55.5667 158.347 58.572 158.347 60.125H160.747C160.747 58.878 161.189 56.1333 162.145 51.756L159.8 51.244ZM158.347 60.125C158.347 61.2342 158.542 62.2827 159.12 63.0794C159.749 63.9476 160.689 64.325 161.722 64.325V61.925C161.306 61.925 161.158 61.8024 161.063 61.6706C160.915 61.4673 160.747 61.0158 160.747 60.125H158.347ZM161.722 64.325C163.176 64.325 164.634 63.476 166.045 62.2219L164.45 60.4281C163.161 61.574 162.269 61.925 161.722 61.925V64.325ZM166.047 62.2201C167.513 60.9108 169.408 58.8571 171.718 56.0949L169.877 54.5551C167.587 57.2929 165.782 59.2392 164.448 60.4299L166.047 62.2201ZM171.708 56.1059C172.137 55.6055 172.502 55.475 172.822 55.475V53.075C171.643 53.075 170.657 53.6445 169.886 54.5441L171.708 56.1059ZM172.822 55.475C173.011 55.475 173.133 55.5174 173.286 55.7796L175.359 54.5704C174.812 53.6326 173.934 53.075 172.822 53.075V55.475ZM173.324 55.8406C173.545 56.1727 173.722 56.7344 173.722 57.65H176.122C176.122 56.4656 175.899 55.3773 175.321 54.5094L173.324 55.8406ZM173.722 57.65C173.722 59.4703 173.291 60.7036 172.589 61.5157L174.406 63.0843C175.604 61.6964 176.122 59.8297 176.122 57.65H173.722ZM172.565 61.544C170.48 64.1146 168.239 66.2063 165.848 67.8327L167.197 69.8173C169.805 68.0437 172.215 65.7854 174.429 63.056L172.565 61.544ZM165.838 67.8391C163.601 69.3916 161.042 70.175 158.122 70.175V72.575C161.502 72.575 164.544 71.6584 167.206 69.8109L165.838 67.8391ZM158.122 70.175C155.802 70.175 154.248 69.5224 153.241 68.3989L151.454 70.0011C153.047 71.7776 155.343 72.575 158.122 72.575V70.175ZM153.254 68.4141C152.208 67.2071 151.597 65.3788 151.597 62.75H149.197C149.197 65.7212 149.887 68.1929 151.441 69.9859L153.254 68.4141ZM151.597 62.75C151.597 61.4806 151.924 59.0867 152.625 55.479L150.269 55.021C149.571 58.6133 149.197 61.2194 149.197 62.75H151.597ZM152.623 55.4925C153.27 52.3528 153.622 50.0643 153.622 48.725H151.222C151.222 49.7857 150.924 51.8472 150.272 55.0075L152.623 55.4925ZM153.622 48.725C153.622 48.2247 153.543 47.6371 153.205 47.1452C152.811 46.5722 152.206 46.325 151.597 46.325V48.725C151.589 48.725 151.524 48.7231 151.435 48.6798C151.34 48.6337 151.269 48.5658 151.227 48.5048C151.191 48.4517 151.192 48.4276 151.201 48.468C151.21 48.5085 151.222 48.5899 151.222 48.725H153.622ZM151.597 46.325C150.794 46.325 150.108 46.816 149.604 47.2789C149.051 47.7868 148.464 48.5023 147.842 49.383L149.803 50.767C150.381 49.9477 150.856 49.3882 151.228 49.0461C151.649 48.659 151.751 48.725 151.597 48.725V46.325ZM147.838 49.3888C146.631 51.1203 145.397 53.3916 144.13 56.1784L146.315 57.1716C147.548 54.4584 148.714 52.3296 149.807 50.7612L147.838 49.3888ZM144.123 56.1951C142.894 59.0104 141.898 61.9753 141.132 65.0885L143.463 65.6615C144.197 62.6747 145.151 59.8396 146.322 57.1549L144.123 56.1951ZM141.129 65.1015C140.584 67.43 139.985 68.7714 139.448 69.3811L141.247 70.9689C142.209 69.8786 142.911 68.02 143.466 65.6485L141.129 65.1015ZM139.444 69.3848C139.061 69.8233 138.338 70.175 136.972 70.175V72.575C138.707 72.575 140.234 72.1267 141.25 70.9652L139.444 69.3848ZM171.704 67.25L170.841 68.083L170.848 68.0908L170.856 68.0985L171.704 67.25ZM170.054 45.575L171.117 46.1325L171.117 46.1325L170.054 45.575ZM176.279 38.525L175.627 37.5175L175.627 37.5175L176.279 38.525ZM190.679 38.525L189.791 39.3322L189.804 39.3463L189.818 39.36L190.679 38.525ZM191.579 50.075L190.576 49.4174L190.568 49.4297L190.56 49.4422L191.579 50.075ZM185.654 51.575L184.895 52.5037L184.914 52.5198L184.934 52.535L185.654 51.575ZM185.204 47.525L184.066 47.1455L184.051 47.1892L184.04 47.234L185.204 47.525ZM185.054 43.925L184.143 44.7059L184.173 44.7409L184.206 44.7735L185.054 43.925ZM180.479 44.975L181.328 45.8235L181.338 45.8132L181.348 45.8026L180.479 44.975ZM178.079 49.1L176.944 48.7108L176.944 48.7108L178.079 49.1ZM191.354 61.55L191.952 62.5905L191.959 62.5865L191.354 61.55ZM198.404 55.325L197.493 54.5441L197.489 54.5496L197.484 54.5551L198.404 55.325ZM201.929 55.175L200.893 55.7796L200.911 55.8107L200.931 55.8406L201.929 55.175ZM201.104 62.3L202.037 63.0555L202.045 63.0448L201.104 62.3ZM192.629 69.05L193.146 70.1331L193.153 70.1298L192.629 69.05ZM183.179 70.175C178.511 70.175 175.023 68.8715 172.553 66.4015L170.856 68.0985C173.886 71.1285 178.048 72.575 183.179 72.575V70.175ZM172.568 66.417C170.12 63.8784 168.854 60.5209 168.854 56.225H166.454C166.454 61.0291 167.889 65.0216 170.841 68.083L172.568 66.417ZM168.854 56.225C168.854 52.3351 169.622 48.9826 171.117 46.1325L168.992 45.0175C167.287 48.2674 166.454 52.0149 166.454 56.225H168.854ZM171.117 46.1325C172.634 43.2404 174.577 41.056 176.931 39.5325L175.627 37.5175C172.882 39.294 170.675 41.8096 168.992 45.0175L171.117 46.1325ZM176.931 39.5325C179.304 37.997 181.755 37.25 184.304 37.25V34.85C181.253 34.85 178.355 35.753 175.627 37.5175L176.931 39.5325ZM184.304 37.25C186.801 37.25 188.57 37.989 189.791 39.3322L191.567 37.7178C189.788 35.761 187.308 34.85 184.304 34.85V37.25ZM189.818 39.36C191.119 40.7034 191.804 42.4629 191.804 44.75H194.204C194.204 41.9371 193.34 39.5466 191.541 37.69L189.818 39.36ZM191.804 44.75C191.804 46.6663 191.373 48.2007 190.576 49.4174L192.583 50.7326C193.686 49.0493 194.204 47.0337 194.204 44.75H191.804ZM190.56 49.4422C189.843 50.597 189.001 51.05 187.979 51.05V53.45C189.958 53.45 191.516 52.453 192.599 50.7078L190.56 49.4422ZM187.979 51.05C187.219 51.05 186.717 50.8719 186.374 50.615L184.934 52.535C185.792 53.1781 186.84 53.45 187.979 53.45V51.05ZM186.414 50.6463C186.18 50.4547 186.029 50.1912 186.029 49.7H183.629C183.629 50.8088 184.029 51.7953 184.895 52.5037L186.414 50.6463ZM186.029 49.7C186.029 49.4601 186.064 49.1501 186.151 48.7603L183.808 48.2397C183.695 48.7499 183.629 49.2399 183.629 49.7H186.029ZM186.151 48.7603C186.251 48.3112 186.323 47.9995 186.369 47.816L184.04 47.234C183.986 47.4505 183.908 47.7888 183.808 48.2397L186.151 48.7603ZM186.343 47.9045C186.625 47.0576 186.779 46.2284 186.779 45.425H184.379C184.379 45.9216 184.284 46.4923 184.066 47.1455L186.343 47.9045ZM186.779 45.425C186.779 44.5603 186.542 43.7154 185.903 43.0765L184.206 44.7735C184.267 44.8346 184.379 44.9897 184.379 45.425H186.779ZM185.966 43.144C185.373 42.4529 184.542 42.2 183.704 42.2V44.6C184.067 44.6 184.136 44.6971 184.143 44.7059L185.966 43.144ZM183.704 42.2C182.145 42.2 180.774 42.9254 179.61 44.1474L181.348 45.8026C182.185 44.9246 182.964 44.6 183.704 44.6V42.2ZM179.631 44.1265C178.468 45.2892 177.586 46.8391 176.944 48.7108L179.215 49.4892C179.773 47.8609 180.491 46.6608 181.328 45.8235L179.631 44.1265ZM176.944 48.7108C176.296 50.6017 175.979 52.6602 175.979 54.875H178.379C178.379 52.8898 178.663 51.0983 179.215 49.4892L176.944 48.7108ZM175.979 54.875C175.979 57.9223 176.639 60.4319 178.168 62.188C179.725 63.9758 181.998 64.775 184.754 64.775V62.375C182.461 62.375 180.947 61.7242 179.978 60.612C178.982 59.4681 178.379 57.6277 178.379 54.875H175.979ZM184.754 64.775C187.071 64.775 189.477 64.0124 191.952 62.5905L190.757 60.5095C188.532 61.7876 186.538 62.375 184.754 62.375V64.775ZM191.959 62.5865C194.508 61.0996 196.96 58.922 199.325 56.0949L197.484 54.5551C195.248 57.228 193.001 59.2004 190.75 60.5135L191.959 62.5865ZM199.316 56.1059C199.744 55.6055 200.109 55.475 200.429 55.475V53.075C199.25 53.075 198.264 53.6445 197.493 54.5441L199.316 56.1059ZM200.429 55.475C200.618 55.475 200.74 55.5174 200.893 55.7796L202.966 54.5704C202.419 53.6326 201.541 53.075 200.429 53.075V55.475ZM200.931 55.8406C201.152 56.1727 201.329 56.7344 201.329 57.65H203.729C203.729 56.4656 203.506 55.3773 202.928 54.5094L200.931 55.8406ZM201.329 57.65C201.329 59.3465 200.908 60.6142 200.164 61.5552L202.045 63.0448C203.2 61.5858 203.729 59.7535 203.729 57.65H201.329ZM200.172 61.5445C197.931 64.3102 195.245 66.4484 192.106 67.9702L193.153 70.1298C196.614 68.4516 199.578 66.0898 202.037 63.0555L200.172 61.5445ZM192.113 67.9669C188.995 69.4537 186.021 70.175 183.179 70.175V72.575C186.438 72.575 189.764 71.7463 193.146 70.1331L192.113 67.9669ZM239.592 55.175L238.555 55.7796L238.573 55.8107L238.593 55.8406L239.592 55.175ZM238.767 62.3L239.673 63.0866L239.675 63.0843L238.767 62.3ZM231.642 68.825L230.958 67.839L230.948 67.8458L231.642 68.825ZM217.617 69.2L216.71 69.9859L216.716 69.9935L216.723 70.0011L217.617 69.2ZM216.717 55.25L215.541 55.0075L215.539 55.021L216.717 55.25ZM214.092 50.075L215.062 50.7808L215.067 50.7739L215.072 50.767L214.092 50.075ZM210.492 56.675L211.592 57.1549L211.592 57.1549L210.492 56.675ZM207.567 65.375L206.401 65.0884L206.399 65.0977L207.567 65.375ZM197.517 69.8L196.406 70.2544L196.419 70.2855L196.433 70.3159L197.517 69.8ZM196.917 60.125L198.115 60.1881L198.116 60.164L198.117 60.14L196.917 60.125ZM196.992 54.125L198.192 54.14L198.192 54.1325V54.125H196.992ZM199.317 30.05L198.138 29.8242L198.137 29.831L199.317 30.05ZM206.292 9.05L205.238 8.47667L205.236 8.47996L206.292 9.05ZM222.942 3.5L221.959 4.18815L221.968 4.20224L221.979 4.21604L222.942 3.5ZM220.692 26.9L221.745 27.4753L221.747 27.4712L220.692 26.9ZM206.292 45.875L205.407 45.0639L205.118 45.379L205.094 45.8059L206.292 45.875ZM206.067 53.9H204.867L207.185 54.3343L206.067 53.9ZM211.542 43.55L210.586 42.8243L210.584 42.8271L211.542 43.55ZM217.542 37.775L216.943 36.7346L216.932 36.7414L217.542 37.775ZM226.242 51.5L227.414 51.756L227.415 51.753L226.242 51.5ZM230.517 61.325L231.314 62.2219L231.316 62.2201L230.517 61.325ZM236.067 55.325L235.156 54.5441L235.151 54.5496L235.146 54.5551L236.067 55.325ZM212.817 11.825L213.919 12.3003L213.922 12.2926L212.817 11.825ZM209.592 22.25L208.424 21.9714L208.422 21.9811L209.592 22.25ZM207.117 36.5L205.926 36.3497L205.421 40.35L208.031 37.2768L207.117 36.5ZM214.767 24.575L213.683 24.0586L213.679 24.0689L214.767 24.575ZM217.317 9.2L218.426 8.7431L218.426 8.74309L217.317 9.2ZM238.092 55.475C238.28 55.475 238.402 55.5174 238.555 55.7796L240.628 54.5704C240.081 53.6326 239.203 53.075 238.092 53.075V55.475ZM238.593 55.8406C238.815 56.1727 238.992 56.7344 238.992 57.65H241.392C241.392 56.4656 241.169 55.3773 240.59 54.5094L238.593 55.8406ZM238.992 57.65C238.992 59.4703 238.56 60.7036 237.859 61.5157L239.675 63.0843C240.874 61.6964 241.392 59.8297 241.392 57.65H238.992ZM237.86 61.5134C235.615 64.1009 233.313 66.205 230.958 67.8391L232.326 69.8109C234.871 68.045 237.319 65.7991 239.673 63.0866L237.86 61.5134ZM230.948 67.8458C228.762 69.3941 226.257 70.175 223.392 70.175V72.575C226.726 72.575 229.721 71.6559 232.335 69.8042L230.948 67.8458ZM223.392 70.175C221.071 70.175 219.517 69.5224 218.51 68.3989L216.723 70.0011C218.316 71.7776 220.612 72.575 223.392 72.575V70.175ZM218.524 68.4141C217.478 67.2071 216.867 65.3788 216.867 62.75H214.467C214.467 65.7212 215.156 68.1929 216.71 69.9859L218.524 68.4141ZM216.867 62.75C216.867 61.4806 217.193 59.0867 217.895 55.479L215.539 55.021C214.84 58.6133 214.467 61.2194 214.467 62.75H216.867ZM217.892 55.4925C218.54 52.3528 218.892 50.0643 218.892 48.725H216.492C216.492 49.7857 216.194 51.8472 215.541 55.0075L217.892 55.4925ZM218.892 48.725C218.892 48.2247 218.812 47.6371 218.474 47.1452C218.08 46.5722 217.476 46.325 216.867 46.325V48.725C216.859 48.725 216.794 48.7231 216.704 48.6798C216.609 48.6337 216.538 48.5658 216.497 48.5048C216.46 48.4517 216.461 48.4276 216.47 48.468C216.48 48.5085 216.492 48.5899 216.492 48.725H218.892ZM216.867 46.325C216.063 46.325 215.377 46.816 214.873 47.2789C214.321 47.7868 213.733 48.5023 213.111 49.383L215.072 50.767C215.65 49.9477 216.125 49.3882 216.497 49.0461C216.919 48.659 217.02 48.725 216.867 48.725V46.325ZM213.121 49.3692C211.852 51.114 210.612 53.3989 209.392 56.1951L211.592 57.1549C212.771 54.4511 213.931 52.336 215.062 50.7808L213.121 49.3692ZM209.392 56.1951C208.163 59.0104 207.167 61.9753 206.401 65.0885L208.732 65.6615C209.466 62.6747 210.42 59.8396 211.592 57.1549L209.392 56.1951ZM206.399 65.0977C205.964 66.9312 205.239 68.1737 204.314 68.9612C203.4 69.7389 202.171 70.175 200.517 70.175V72.575C202.613 72.575 204.433 72.0111 205.869 70.7888C207.294 69.5763 208.22 67.8188 208.734 65.6523L206.399 65.0977ZM200.517 70.175C199.319 70.175 198.84 69.7887 198.6 69.2841L196.433 70.3159C197.193 71.9113 198.714 72.575 200.517 72.575V70.175ZM198.627 69.3456C198.275 68.4853 198.042 66.7494 198.042 63.95H195.642C195.642 66.7506 195.858 68.9147 196.406 70.2544L198.627 69.3456ZM198.042 63.95C198.042 62.359 198.067 61.1077 198.115 60.1881L195.718 60.0619C195.667 61.0423 195.642 62.341 195.642 63.95H198.042ZM198.117 60.14L198.192 54.14L195.792 54.11L195.717 60.11L198.117 60.14ZM198.192 54.125C198.192 46.5055 198.959 38.5541 200.497 30.269L198.137 29.831C196.575 38.2459 195.792 46.3445 195.792 54.125H198.192ZM200.495 30.2758C202.079 22.0096 204.371 15.1338 207.348 9.62003L205.236 8.47996C202.112 14.2662 199.754 21.3904 198.138 29.8242L200.495 30.2758ZM207.346 9.62332C210.353 4.09401 213.732 1.7 217.392 1.7V-0.700004C212.452 -0.700004 208.43 2.60598 205.238 8.47667L207.346 9.62332ZM217.392 1.7C219.273 1.7 220.767 2.48567 221.959 4.18815L223.925 2.81184C222.317 0.514321 220.111 -0.700004 217.392 -0.700004V1.7ZM221.979 4.21604C223.235 5.90504 223.917 8.18139 223.917 11.15H226.317C226.317 7.8186 225.549 4.99495 223.905 2.78395L221.979 4.21604ZM223.917 11.15C223.917 15.9601 222.513 21.0148 219.636 26.3288L221.747 27.4712C224.771 21.8852 226.317 16.4399 226.317 11.15H223.917ZM219.639 26.3247C216.754 31.6045 212.026 37.8482 205.407 45.0639L207.176 46.6861C213.858 39.4018 218.729 32.9955 221.745 27.4753L219.639 26.3247ZM205.094 45.8059C204.942 48.4301 204.867 51.1282 204.867 53.9H207.267C207.267 51.1718 207.341 48.5199 207.49 45.9441L205.094 45.8059ZM207.185 54.3343C208.809 50.152 210.586 46.8086 212.5 44.2729L210.584 42.8271C208.498 45.5914 206.624 49.148 204.948 53.4657L207.185 54.3343ZM212.497 44.2756C214.496 41.6439 216.385 39.8502 218.151 38.8086L216.932 36.7414C214.798 37.9998 212.688 40.0561 210.586 42.8243L212.497 44.2756ZM218.14 38.8153C220.027 37.7303 221.644 37.25 223.017 37.25V34.85C221.09 34.85 219.057 35.5197 216.944 36.7347L218.14 38.8153ZM223.017 37.25C224.457 37.25 225.316 37.6092 225.824 38.1173C226.333 38.6254 226.692 39.485 226.692 40.925H229.092C229.092 39.115 228.638 37.5371 227.521 36.4202C226.405 35.3033 224.827 34.85 223.017 34.85V37.25ZM226.692 40.925C226.692 42.7296 226.171 46.1364 225.069 51.247L227.415 51.753C228.512 46.6636 229.092 43.0204 229.092 40.925H226.692ZM225.069 51.244C224.125 55.5667 223.617 58.572 223.617 60.125H226.017C226.017 58.878 226.458 56.1333 227.414 51.756L225.069 51.244ZM223.617 60.125C223.617 61.2342 223.811 62.2827 224.389 63.0794C225.018 63.9476 225.958 64.325 226.992 64.325V61.925C226.575 61.925 226.427 61.8024 226.332 61.6706C226.185 61.4673 226.017 61.0158 226.017 60.125H223.617ZM226.992 64.325C228.445 64.325 229.903 63.476 231.314 62.2219L229.719 60.4281C228.43 61.574 227.539 61.925 226.992 61.925V64.325ZM231.316 62.2201C232.782 60.9108 234.677 58.8571 236.987 56.0949L235.146 54.5551C232.856 57.2929 231.051 59.2392 229.717 60.4299L231.316 62.2201ZM236.978 56.1059C237.407 55.6055 237.771 55.475 238.092 55.475V53.075C236.912 53.075 235.927 53.6445 235.156 54.5441L236.978 56.1059ZM215.817 6.725C214.778 6.725 213.991 7.4529 213.441 8.16834C212.849 8.93718 212.277 10.0204 211.712 11.3574L213.922 12.2926C214.456 11.0296 214.934 10.1628 215.343 9.63165C215.793 9.0471 215.956 9.125 215.817 9.125V6.725ZM211.715 11.3497C210.576 13.9902 209.482 17.5404 208.424 21.9715L210.759 22.5285C211.802 18.1596 212.858 14.7598 213.919 12.3003L211.715 11.3497ZM208.422 21.9811C207.412 26.376 206.58 31.1661 205.926 36.3497L208.307 36.6503C208.953 31.5339 209.772 26.824 210.761 22.5188L208.422 21.9811ZM208.031 37.2768C211.2 33.5456 213.809 29.4797 215.855 25.0811L213.679 24.0689C211.724 28.2703 209.233 32.1544 206.202 35.7232L208.031 37.2768ZM215.85 25.0914C217.951 20.6852 219.042 16.6061 219.042 12.875H216.642C216.642 16.1439 215.683 19.8648 213.684 24.0586L215.85 25.0914ZM219.042 12.875C219.042 11.2171 218.865 9.80767 218.426 8.7431L216.207 9.65689C216.469 10.2923 216.642 11.3329 216.642 12.875H219.042ZM218.426 8.74309C217.982 7.66409 217.154 6.725 215.817 6.725V9.125C215.846 9.125 215.857 9.12928 215.86 9.13028C215.863 9.13134 215.877 9.13641 215.902 9.15808C215.96 9.20724 216.077 9.34198 216.207 9.6569L218.426 8.74309ZM239.213 29.675L238.386 30.544L238.397 30.5545L238.408 30.5648L239.213 29.675ZM239.663 21.2L240.441 22.1135L240.444 22.1111L239.663 21.2ZM249.113 29.375L249.908 30.2738L249.918 30.2654L249.927 30.2568L249.113 29.375ZM236.213 67.925L235.198 68.565L235.203 68.5728L235.208 68.5805L236.213 67.925ZM234.863 50.15L233.68 49.95L233.678 49.9637L234.863 50.15ZM237.113 40.25L238.264 40.5896L238.266 40.5823L238.268 40.5749L237.113 40.25ZM244.913 47.3L246.086 47.5558L246.088 47.5453L244.913 47.3ZM249.113 61.25L248.298 60.3695L248.298 60.3695L249.113 61.25ZM254.513 55.325L253.602 54.5441L253.597 54.5504L253.591 54.5568L254.513 55.325ZM258.038 55.175L257.002 55.7796L257.02 55.8107L257.04 55.8406L258.038 55.175ZM257.213 62.3L256.305 61.5157L256.295 61.5277L256.284 61.5401L257.213 62.3ZM243.938 29.9C241.995 29.9 240.762 29.4579 240.018 28.7852L238.408 30.5648C239.765 31.7921 241.681 32.3 243.938 32.3V29.9ZM240.041 28.806C239.277 28.0785 238.838 27.0447 238.838 25.55H236.438C236.438 27.5553 237.05 29.2715 238.386 30.544L240.041 28.806ZM238.838 25.55C238.838 24.157 239.355 23.039 240.441 22.1135L238.885 20.2865C237.272 21.661 236.438 23.443 236.438 25.55H238.838ZM240.444 22.1111C241.602 21.1187 243.04 20.6 244.838 20.6V18.2C242.536 18.2 240.524 18.8813 238.882 20.2889L240.444 22.1111ZM244.838 20.6C246.493 20.6 247.711 21 248.599 21.695L250.078 19.805C248.666 18.7 246.884 18.2 244.838 18.2V20.6ZM248.599 21.695C249.418 22.336 249.863 23.2396 249.863 24.575H252.263C252.263 22.6104 251.559 20.964 250.078 19.805L248.599 21.695ZM249.863 24.575C249.863 26.2883 249.32 27.5512 248.299 28.4932L249.927 30.2568C251.507 28.7988 252.263 26.8617 252.263 24.575H249.863ZM248.318 28.4762C247.286 29.3888 245.868 29.9 243.938 29.9V32.3C246.308 32.3 248.34 31.6612 249.908 30.2738L248.318 28.4762ZM243.338 70.175C240.407 70.175 238.453 69.1634 237.218 67.2695L235.208 68.5805C236.973 71.2866 239.769 72.575 243.338 72.575V70.175ZM237.228 67.285C235.938 65.2385 235.238 62.4348 235.238 58.775H232.838C232.838 62.7152 233.588 66.0115 235.198 68.565L237.228 67.285ZM235.238 58.775C235.238 56.6122 235.503 53.8054 236.049 50.3363L233.678 49.9637C233.123 53.4946 232.838 56.4378 232.838 58.775H235.238ZM236.046 50.35C236.639 46.8411 237.379 43.5882 238.264 40.5896L235.962 39.9104C235.047 43.0118 234.287 46.3589 233.68 49.95L236.046 50.35ZM238.268 40.5749C238.695 39.0592 239.206 38.2525 239.663 37.887L238.164 36.013C237.12 36.8475 236.432 38.2408 235.958 39.9251L238.268 40.5749ZM239.663 37.887C240.094 37.5421 240.959 37.25 242.513 37.25V34.85C240.768 34.85 239.232 35.1579 238.164 36.013L239.663 37.887ZM242.513 37.25C243.693 37.25 244.368 37.4535 244.716 37.686C244.979 37.8612 245.138 38.0996 245.138 38.6H247.538C247.538 37.4004 247.06 36.3638 246.048 35.689C245.121 35.0715 243.884 34.85 242.513 34.85V37.25ZM245.138 38.6C245.138 39.6995 244.697 42.465 243.739 47.0547L246.088 47.5453C247.03 43.035 247.538 40.0005 247.538 38.6H245.138ZM243.741 47.0442C242.545 52.5261 241.913 56.3753 241.913 58.475H244.313C244.313 56.6747 244.882 53.0739 246.086 47.5558L243.741 47.0442ZM241.913 58.475C241.913 60.0509 242.118 61.4185 242.64 62.4617L244.786 61.3883C244.508 60.8315 244.313 59.8991 244.313 58.475H241.913ZM242.64 62.4617C242.928 63.0381 243.345 63.524 243.908 63.8573C244.466 64.1881 245.093 64.325 245.738 64.325V61.925C245.433 61.925 245.248 61.8619 245.131 61.7926C245.019 61.726 244.898 61.6119 244.786 61.3883L242.64 62.4617ZM245.738 64.325C247.13 64.325 248.553 63.4038 249.928 62.1305L248.298 60.3695C246.973 61.5962 246.146 61.925 245.738 61.925V64.325ZM249.928 62.1305C251.336 60.8268 253.176 58.8041 255.435 56.0932L253.591 54.5568C251.35 57.2459 249.59 59.1732 248.298 60.3695L249.928 62.1305ZM255.424 56.1059C255.853 55.6055 256.217 55.475 256.538 55.475V53.075C255.359 53.075 254.373 53.6445 253.602 54.5441L255.424 56.1059ZM256.538 55.475C256.727 55.475 256.849 55.5174 257.002 55.7796L259.075 54.5704C258.528 53.6326 257.65 53.075 256.538 53.075V55.475ZM257.04 55.8406C257.261 56.1727 257.438 56.7344 257.438 57.65H259.838C259.838 56.4656 259.615 55.3773 259.037 54.5094L257.04 55.8406ZM257.438 57.65C257.438 59.4703 257.006 60.7036 256.305 61.5157L258.121 63.0843C259.32 61.6964 259.838 59.8297 259.838 57.65H257.438ZM256.284 61.5401C251.388 67.5252 247.072 70.175 243.338 70.175V72.575C248.205 72.575 253.139 69.1748 258.142 63.0599L256.284 61.5401ZM253.845 68.375L252.722 68.7963L252.726 68.8086L252.731 68.8207L253.845 68.375ZM255.495 40.25L256.639 40.6118L256.641 40.6057L255.495 40.25ZM257.67 37.1L258.324 38.1062L258.336 38.0985L257.67 37.1ZM263.595 43.25L262.436 42.9395L262.433 42.9492L262.431 42.959L263.595 43.25ZM261.645 54.05L260.45 53.9414L262.766 54.4799L261.645 54.05ZM267.195 43.55L266.239 42.8243L266.239 42.8243L267.195 43.55ZM273.195 37.775L272.597 36.7346L272.586 36.7414L273.195 37.775ZM282.27 37.325L281.396 38.1474L281.421 38.1739L281.448 38.1988L282.27 37.325ZM282.72 48.275L283.904 48.4691L283.906 48.4562L282.72 48.275ZM281.52 56.975L282.713 57.1075L282.713 57.1051L281.52 56.975ZM279.87 70.175L278.996 69.3526L278.995 69.3543L279.87 70.175ZM272.52 70.1L271.62 70.8939L271.62 70.8939L272.52 70.1ZM272.445 56.375L273.632 56.5555L273.632 56.553L272.445 56.375ZM269.745 50.075L268.765 49.383L268.761 49.3888L269.745 50.075ZM266.145 56.675L265.053 56.1784L265.049 56.1867L265.045 56.1951L266.145 56.675ZM263.22 65.375L262.055 65.0884L262.052 65.1015L263.22 65.375ZM261.27 70.175L260.37 69.381L260.367 69.3848L261.27 70.175ZM257.895 70.175C257.167 70.175 256.614 69.9879 256.172 69.6607C255.72 69.3257 255.3 68.7802 254.959 67.9293L252.731 68.8207C253.191 69.9698 253.846 70.9243 254.743 71.5893C255.652 72.2621 256.723 72.575 257.895 72.575V70.175ZM254.969 67.9537C254.299 66.1673 253.92 63.1507 253.92 58.775H251.52C251.52 63.1993 251.891 66.5827 252.722 68.7963L254.969 67.9537ZM253.92 58.775C253.92 52.3904 254.829 46.338 256.639 40.6118L254.351 39.8882C252.462 45.862 251.52 52.1596 251.52 58.775H253.92ZM256.641 40.6057C257.031 39.3486 257.617 38.5656 258.324 38.1061L257.016 36.0939C255.723 36.9344 254.859 38.2514 254.349 39.8943L256.641 40.6057ZM258.336 38.0985C259.117 37.5778 260.303 37.25 262.02 37.25V34.85C260.038 34.85 258.324 35.2222 257.005 36.1015L258.336 38.0985ZM262.02 37.25C262.996 37.25 263.394 37.386 263.484 37.4426L264.756 35.4074C264.047 34.964 263.044 34.85 262.02 34.85V37.25ZM263.484 37.4426C263.475 37.4371 263.465 37.4285 263.458 37.4198C263.452 37.4118 263.455 37.4136 263.464 37.4344C263.484 37.4819 263.52 37.6061 263.52 37.85H265.92C265.92 36.9517 265.657 35.9707 264.756 35.4074L263.484 37.4426ZM263.52 37.85C263.52 38.1154 263.451 38.6594 263.264 39.5553C263.083 40.4244 262.808 41.5504 262.436 42.9395L264.754 43.5605C265.132 42.1496 265.42 40.9756 265.614 40.0447C265.802 39.1406 265.92 38.3846 265.92 37.85H263.52ZM262.431 42.959C261.928 44.9715 261.523 46.7409 261.219 48.2647L263.572 48.7353C263.867 47.2591 264.263 45.5285 264.759 43.541L262.431 42.959ZM261.219 48.2647C260.907 49.8204 260.652 51.7157 260.45 53.9414L262.84 54.1586C263.038 51.9843 263.283 50.1796 263.572 48.7353L261.219 48.2647ZM262.766 54.4799C264.388 50.2506 266.189 46.8596 268.151 44.2756L266.239 42.8243C264.101 45.6404 262.202 49.2494 260.525 53.6201L262.766 54.4799ZM268.151 44.2756C270.149 41.6439 272.039 39.8502 273.805 38.8086L272.586 36.7414C270.452 37.9998 268.341 40.0561 266.239 42.8243L268.151 44.2756ZM273.793 38.8153C275.68 37.7303 277.297 37.25 278.67 37.25V34.85C276.743 34.85 274.71 35.5197 272.597 36.7347L273.793 38.8153ZM278.67 37.25C280.066 37.25 280.897 37.6173 281.396 38.1474L283.144 36.5026C282.043 35.3327 280.474 34.85 278.67 34.85V37.25ZM281.448 38.1988C281.978 38.6978 282.345 39.5292 282.345 40.925H284.745C284.745 39.1208 284.262 37.5522 283.093 36.4512L281.448 38.1988ZM282.345 40.925C282.345 42.1203 282.086 44.4832 281.534 48.0938L283.906 48.4562C284.455 44.8668 284.745 42.3297 284.745 40.925H282.345ZM281.536 48.0809C281.033 51.1497 280.63 54.0711 280.327 56.8449L282.713 57.1051C283.011 54.3788 283.407 51.5003 283.904 48.4691L281.536 48.0809ZM280.328 56.8425C280.022 59.5952 279.87 62.6655 279.87 66.05H282.27C282.27 62.7345 282.419 59.7548 282.713 57.1075L280.328 56.8425ZM279.87 66.05C279.87 67.826 279.489 68.8293 278.996 69.3526L280.744 70.9974C281.852 69.8207 282.27 68.074 282.27 66.05H279.87ZM278.995 69.3543C278.576 69.8008 277.731 70.175 276.12 70.175V72.575C278.01 72.575 279.664 72.1492 280.746 70.9957L278.995 69.3543ZM276.12 70.175C274.655 70.175 273.854 69.7982 273.42 69.3061L271.62 70.8939C272.686 72.1018 274.286 72.575 276.12 72.575V70.175ZM273.42 69.3061C272.94 68.7623 272.595 67.8244 272.595 66.275H270.195C270.195 68.1256 270.6 69.7377 271.62 70.8939L273.42 69.3061ZM272.595 66.275C272.595 64.3742 272.932 61.1532 273.632 56.5555L271.259 56.1945C270.559 60.7968 270.195 64.1758 270.195 66.275H272.595ZM273.632 56.553C274.228 52.5811 274.545 49.9334 274.545 48.725H272.145C272.145 49.7166 271.863 52.1689 271.258 56.197L273.632 56.553ZM274.545 48.725C274.545 48.2247 274.466 47.6371 274.128 47.1452C273.734 46.5722 273.129 46.325 272.52 46.325V48.725C272.512 48.725 272.447 48.7231 272.358 48.6798C272.263 48.6337 272.192 48.5658 272.15 48.5048C272.114 48.4517 272.115 48.4276 272.124 48.468C272.133 48.5085 272.145 48.5899 272.145 48.725H274.545ZM272.52 46.325C271.717 46.325 271.031 46.816 270.527 47.2789C269.974 47.7868 269.386 48.5023 268.765 49.383L270.726 50.767C271.304 49.9477 271.779 49.3882 272.151 49.0461C272.572 48.659 272.674 48.725 272.52 48.725V46.325ZM268.761 49.3888C267.554 51.1203 266.32 53.3916 265.053 56.1784L267.238 57.1716C268.471 54.4584 269.636 52.3296 270.73 50.7612L268.761 49.3888ZM265.045 56.1951C263.817 59.0104 262.82 61.9753 262.055 65.0885L264.386 65.6615C265.12 62.6747 266.074 59.8396 267.245 57.1549L265.045 56.1951ZM262.052 65.1015C261.507 67.43 260.908 68.7714 260.37 69.3811L262.17 70.9689C263.132 69.8786 263.834 68.02 264.389 65.6485L262.052 65.1015ZM260.367 69.3848C259.983 69.8233 259.261 70.175 257.895 70.175V72.575C259.629 72.575 261.157 72.1267 262.173 70.9652L260.367 69.3848Z"/></svg>